# xmcd
# 
# Track frame offsets:
#     150
#     14484
#     30056
#     44033
#     59826
# 
# Disc length: 1011
# 
# Revision: 0
# Processed by: cddbd v1.5.2PL0 Copyright (c) Steve Scherf et al.
# Submitted via: BonkEnc v1.0.15
# 
DISCID=3e03f105
DTITLE=Newsboys - Born Again [Special Preview EP]
DYEAR=2010
DGENRE=Rock
TTITLE0=Born Again
TTITLE1=On Your Knees
TTITLE2=When The Boys Light Up
TTITLE3=I'll Be
TTITLE4=One Shot
EXTD=
EXTT0=
EXTT1=
EXTT2=
EXTT3=
EXTT4=
PLAYORDER=
